<svg width="279.7832943925233" height="332.63124999999997" viewBox="0 0 90 107" class="css-1j8o68f"><defs id="SvgjsDefs9797"></defs><g id="SvgjsG9798" featurekey="rootContainer" transform="matrix(1,0,0,1,0,0)" fill="#005792"><rect width="90" height="107" rx="8"></rect></g><g id="SvgjsG9799" featurekey="MdC7pD-0" transform="matrix(5.5187641222227395,0,0,5.5187641222227395,20,-18.112574207129235)" fill="#ffffff"><path d="M0 6 l0.72 0 l0 13.28 l1.96 0 l0 -5 l4.68 0 l0 -0.66 l-4.66 0 l0 -0.72 l5.38 0 l0 2.1 l-4.68 0 l0 5 l-3.4 0 l0 -14 z M1.34 6 l7.72 0 l0 3.4 l-5 0 l0 -0.72 l4.28 0 l0 -1.96 l-6.3 0 l0 12 l-0.7 0 l0 -12.72 z M2.68 7.300000000000001 l5.04 0 l0 0.72 l-4.32 0 l0 3.54 l4.68 0 l0 0.74 l-5.4 0 l0 -5 z"></path></g></svg>